<?xml version="1.0" encoding="utf-8"?><svg viewBox="0 0 460.11 512" xmlns="http://www.w3.org/2000/svg" xmlns:xlink="http://www.w3.org/1999/xlink"><style>:root>svg{display:none}:root>svg:target{display:block}</style><svg viewBox="0 0 4.969 9.97" id="icon-angle-left" xmlns="http://www.w3.org/2000/svg"><defs><style>.aacls-1{fill:#8d8d8d;fill-rule:evenodd}</style></defs><path id="aaangle_left" class="aacls-1" d="M973.64 3459.16a.745.745 0 01.178-.49l3.741-4.28a.548.548 0 01.863 0 .762.762 0 010 .98l-3.311 3.79 3.31 3.79a.776.776 0 010 .99.56.56 0 01-.862 0l-3.741-4.28a.772.772 0 01-.178-.5zm0 0" transform="translate(-973.625 -3454.19)"/></svg><svg viewBox="0 0 9 10" id="icon-angle-right" xmlns="http://www.w3.org/2000/svg"><defs><style>.abcls-1{fill:#8d8d8d;fill-rule:evenodd}</style></defs><path id="abangle_right" class="abcls-1" d="M975.907 320.768l-4.338-4.66a.279.279 0 00-.428 0l-.465.5a.331.331 0 000 .46l3.658 3.93-3.658 3.931a.322.322 0 00-.093.23.325.325 0 00.093.23l.465.5a.279.279 0 00.428 0l4.338-4.661A.326.326 0 00976 321a.33.33 0 00-.093-.23zm0 0l-3.482.23a.325.325 0 00-.093-.23l-4.332-4.66a.279.279 0 00-.428 0l-.466.5a.331.331 0 000 .46l3.658 3.93-3.658 3.931a.331.331 0 00-.093.23.334.334 0 00.093.23l.466.5a.279.279 0 00.428 0l4.337-4.661a.322.322 0 00.093-.23zm0 0" transform="translate(-967 -316)"/></svg><svg viewBox="0 0 10 8" id="icon-arrow" xmlns="http://www.w3.org/2000/svg"><defs><style>.accls-1{fill:#8d8d8d;fill-rule:evenodd}</style></defs><path id="acarrow" class="accls-1" d="M910.836 6130.62l-3.609-3.47a.574.574 0 00-.774 0l-.327.32a.511.511 0 00-.16.37.534.534 0 00.16.38l2.105 2.03h-6.689a.518.518 0 00-.54.51v.45a.543.543 0 00.54.54h6.713l-2.129 2.04a.508.508 0 000 .74l.327.32a.6.6 0 00.387.15.556.556 0 00.387-.16l3.609-3.47a.507.507 0 00.164-.37.53.53 0 00-.16-.38" transform="translate(-901 -6127)"/></svg><svg viewBox="0 0 16 20" id="icon-bag" xmlns="http://www.w3.org/2000/svg"><defs><style>.adcls-1{fill:#fe3e57;fill-rule:evenodd}</style></defs><path id="adbag" class="adcls-1" d="M968 3579.29l-1.145-12.89a.553.553 0 00-.547-.51h-2.354a3.948 3.948 0 00-7.9 0H953.7a.55.55 0 00-.547.51l-1.145 12.89v.05a2.854 2.854 0 003 2.67h10a2.854 2.854 0 003-2.67.257.257 0 000-.05zm-7.994-16.18a2.844 2.844 0 012.844 2.78h-5.688a2.844 2.844 0 012.844-2.78zm5 17.79h-10a1.763 1.763 0 01-1.9-1.53l1.1-12.37h1.847v1.68a.552.552 0 001.1 0V3567h5.692v1.68a.552.552 0 001.1 0V3567h1.855l1.1 12.37a1.765 1.765 0 01-1.9 1.53zm0 0" transform="translate(-952 -3562)"/></svg><svg viewBox="0 0 16 16" id="icon-calendar" xmlns="http://www.w3.org/2000/svg"><defs><style>.aecls-1{fill:#fe3e57;fill-rule:evenodd}</style></defs><path class="aecls-1" d="M14.12 1.25h-.75V0h-1.25v1.25H3.88V0H2.62v1.25h-.75A1.874 1.874 0 000 3.12v11A1.876 1.876 0 001.87 16h12.25A1.878 1.878 0 0016 14.12v-11a1.876 1.876 0 00-1.88-1.87zM1.87 2.5h.75v1.25h1.26V2.5h8.24v1.25h1.25V2.5h.75a.625.625 0 01.63.62v1.5H1.25v-1.5a.623.623 0 01.62-.62zm12.25 12.25H1.87a.625.625 0 01-.62-.63V5.87h13.5v8.25a.627.627 0 01-.63.63zM2.37 7.19h1.25v1.25H2.37V7.19zm2.5 0h1.25v1.25H4.87V7.19zm2.5 0h1.25v1.25H7.37V7.19zm2.5 0h1.25v1.25H9.87V7.19zm2.5 0h1.25v1.25h-1.25V7.19zm-10 2.5h1.25v1.25H2.37V9.69zm2.5 0h1.25v1.25H4.87V9.69zm2.5 0h1.25v1.25H7.37V9.69zm2.5 0h1.25v1.25H9.87V9.69zm-7.5 2.5h1.25v1.25H2.37v-1.25zm2.5 0h1.25v1.25H4.87v-1.25zm2.5 0h1.25v1.25H7.37v-1.25zm2.5 0h1.25v1.25H9.87v-1.25zm2.5-2.5h1.25v1.25h-1.25V9.69z"/></svg><svg id="icon-car" viewBox="0 0 60 60" xmlns="http://www.w3.org/2000/svg"><defs><style>.afcls-1{fill:#ffb534}.afcls-2{fill:#fff;fill-rule:evenodd}</style></defs><path id="afIcon_bg" class="afcls-1" d="M0 0h60v60H0z"/><path id="aficon-2" data-name="icon" class="afcls-2" d="M462.2 1018.6l-1.036-4.1a.614.614 0 00.5-.6v-.66a2.621 2.621 0 00-2.631-2.6h-4.723v-1.36a1.286 1.286 0 00-1.3-1.28h-24.046a1.286 1.286 0 00-1.3 1.28v11.22a.627.627 0 001.253 0v-11.22a.037.037 0 01.042-.04h24.051a.037.037 0 01.042.04v11.22a.627.627 0 001.253 0v-.7h7.395a2.047 2.047 0 011.946 1.4H461.7a.624.624 0 00-.626.62v1.32a1.953 1.953 0 001.962 1.94h.71v2.72h-1.637a3.982 3.982 0 00-7.5 0h-.3v-4.66a.627.627 0 00-1.253 0v4.66h-13a3.981 3.981 0 00-7.5 0h-3.6a.043.043 0 01-.042-.04v-1.36h2.714a.62.62 0 100-1.24h-6.013a.62.62 0 100 1.24h2.046v1.36a1.286 1.286 0 001.3 1.28h3.383v.04a3.967 3.967 0 007.934 0v-.04h14.116v.04a3.967 3.967 0 007.934 0v-.04h2.048a.624.624 0 00.626-.62v-6.6a3.276 3.276 0 00-2.802-3.22zm-7.889-4.08h5.565l1.023 4.04h-6.589v-4.04zm4.718-2.64a1.37 1.37 0 011.378 1.36v.04h-6.1v-1.4h4.718zm-22.715 19.88a2.68 2.68 0 112.714-2.68 2.7 2.7 0 01-2.715 2.68zm22.047 0a2.68 2.68 0 112.714-2.68 2.7 2.7 0 01-2.715 2.68zm4.676-7.92a.7.7 0 01-.709-.7v-.7h1.419v1.4h-.71zm-26.723 3.96a1.28 1.28 0 101.294 1.28 1.293 1.293 0 00-1.295-1.28zm22.047 0a1.28 1.28 0 101.294 1.28 1.293 1.293 0 00-1.295-1.28zm-17.329-2.02a.625.625 0 00.626.62h9.354a.62.62 0 100-1.24h-9.354a.625.625 0 00-.627.62zm-14.072-2.02h8.018a.62.62 0 100-1.24h-8.018a.62.62 0 10-.001 1.24zm18.932-9.64l-5.57 5.5-2.9-2.86a.635.635 0 00-.886 0 .619.619 0 000 .88l3.34 3.3a.635.635 0 00.886 0l6.013-5.94a.619.619 0 000-.88.635.635 0 00-.884 0z" transform="translate(-415 -990)"/></svg><svg viewBox="0 0 22 20" id="icon-cart" xmlns="http://www.w3.org/2000/svg"><defs><style>.agcls-1{fill:#29282d;fill-rule:evenodd}</style></defs><path id="agcart_icon" class="agcls-1" d="M1527.44 65a2.724 2.724 0 112.74-2.724 2.738 2.738 0 01-2.74 2.724zm0-3.814a1.09 1.09 0 101.09 1.09 1.094 1.094 0 00-1.09-1.093zm1.75-2.806h-12.81a.823.823 0 01-.8-.628l-2.68-11.115h-2.06a.817.817 0 110-1.634h2.71a.824.824 0 01.8.627l.74 3.078h16.1a.818.818 0 01.8 1.014l-2 8.038a.822.822 0 01-.8.617zm-12.16-1.635h11.52l1.59-6.4h-14.65zm.45 8.255a2.724 2.724 0 112.74-2.724 2.738 2.738 0 01-2.74 2.724zm0-3.814a1.09 1.09 0 101.09 1.09 1.094 1.094 0 00-1.09-1.093z" transform="translate(-1510 -45)"/></svg><svg viewBox="0 0 18 18" id="icon-check" xmlns="http://www.w3.org/2000/svg"><path d="M6.47 11.35l7.94-8.382c.57-.6 1.52-.627 2.122-.057.6.57.627 1.52.057 2.123l-9 9.5-.016.014-.014.015c-.58.582-1.52.586-2.106.015l-.02-.02-3.995-3.994a1.496 1.496 0 010-2.12 1.498 1.498 0 012.12 0l2.91 2.91z" fill-rule="evenodd"/></svg><svg viewBox="0 0 20 20" id="icon-checkmark" xmlns="http://www.w3.org/2000/svg"><defs><style>.aicls-1{fill:#fe3e57;fill-rule:evenodd}</style></defs><path id="aicheckmark" class="aicls-1" d="M422.071 1657.48a10 10 0 102.929 7.07 9.931 9.931 0 00-2.929-7.07zm-7.071 15.9a8.83 8.83 0 118.828-8.83 8.838 8.838 0 01-8.828 8.83zm3.949-12.04l-5.174 5.18-2.724-2.73a.587.587 0 10-.829.83l3.138 3.14a.59.59 0 00.829 0l5.588-5.59a.586.586 0 00-.828-.83z" transform="translate(-405 -1654.56)"/></svg><svg viewBox="0 0 20 20" id="icon-clock" xmlns="http://www.w3.org/2000/svg"><defs><style>.ajcls-1{fill:#8d8d8d;fill-rule:evenodd}</style></defs><path class="ajcls-1" d="M17.9 5.26a.832.832 0 00-.387 1.11 8.318 8.318 0 11-2.335-2.91.831.831 0 101.037-1.3A10 10 0 1020 10a9.9 9.9 0 00-.992-4.35.83.83 0 00-1.113-.39zM10 3.33a.839.839 0 00-.833.84V10a.831.831 0 00.833.83h4.167a.83.83 0 100-1.66h-3.334v-5A.839.839 0 0010 3.33zm0 0"/></svg><svg viewBox="0 0 16 16" id="icon-comment" xmlns="http://www.w3.org/2000/svg"><defs><style>.akcls-1{fill:#fe3e57;fill-rule:evenodd}</style></defs><path id="akComment" class="akcls-1" d="M607.375 1097h-14.75a.624.624 0 00-.625.62V1110a.624.624 0 00.625.62h5.53l1.317 2.09a.626.626 0 001.056 0l1.316-2.09h5.531a.624.624 0 00.625-.62v-12.38a.624.624 0 00-.625-.62zm-.625 12.37h-5.25a.616.616 0 00-.529.3l-.971 1.53-.972-1.53a.613.613 0 00-.528-.3h-5.25v-11.12h13.5v11.12zm-7.531-5.56a.781.781 0 11.781.78.781.781 0 01-.781-.78zm-3.125 0a.781.781 0 11.781.78.781.781 0 01-.781-.78zm6.25 0a.781.781 0 11.781.78.781.781 0 01-.781-.78z" transform="translate(-592 -1097)"/></svg><svg viewBox="0 0 310 310" id="icon-facebook" xmlns="http://www.w3.org/2000/svg"><path d="M81.703 165.106h33.981V305a5 5 0 005 5H178.3a5 5 0 005-5V165.765h39.064a5 5 0 004.967-4.429l5.933-51.502a5 5 0 00-4.966-5.572h-44.996V71.978c0-9.732 5.24-14.667 15.576-14.667h29.42a5 5 0 005-5V5.037a5 5 0 00-5-5h-40.545A39.746 39.746 0 00185.896 0c-7.035 0-31.488 1.381-50.804 19.151-21.402 19.692-18.427 43.27-17.716 47.358v37.752H81.703a5 5 0 00-5 5v50.844a5 5 0 005 5.001z"/></svg><svg viewBox="0 0 24 24" id="icon-google" xmlns="http://www.w3.org/2000/svg"><path d="M11.99 13.9v-3.72h9.36c.14.63.25 1.22.25 2.05 0 5.71-3.83 9.77-9.6 9.77-5.52 0-10-4.48-10-10S6.48 2 12 2c2.7 0 4.96.99 6.69 2.61l-2.84 2.76c-.72-.68-1.98-1.48-3.85-1.48-3.31 0-6.01 2.75-6.01 6.12s2.7 6.12 6.01 6.12c3.83 0 5.24-2.65 5.5-4.22h-5.51v-.01z" fill-rule="nonzero"/></svg><svg viewBox="0 0 15 15" id="icon-grid" xmlns="http://www.w3.org/2000/svg"><defs><style>.ancls-1{fill:#fe3e57;fill-rule:evenodd}</style></defs><path id="angrid" class="ancls-1" d="M855 613.75h3.75V610H855v3.75zm5.625 11.25h3.75v-3.75h-3.75V625zM855 625h3.75v-3.75H855V625zm0-5.625h3.75v-3.75H855v3.75zm5.625 0h3.75v-3.75h-3.75v3.75zM866.25 610v3.75H870V610h-3.75zm-5.625 3.75h3.75V610h-3.75v3.75zm5.625 5.625H870v-3.75h-3.75v3.75zm0 5.625H870v-3.75h-3.75V625z" transform="translate(-855 -610)"/></svg><svg viewBox="0 0 20 20" id="icon-heart" xmlns="http://www.w3.org/2000/svg"><defs><style>.aocls-1{fill:#29282d;fill-rule:evenodd}</style></defs><path id="aoheart_icon" class="aocls-1" d="M1484.78 49.589a6.683 6.683 0 00-4.17-4.371c-1.71-.595-3.75 0-5.58 1.611-1.83-1.569-3.88-2.122-5.58-1.569a6.884 6.884 0 00-4.17 4.371c-.47 1.57-.51 4.117 1.95 7.215 1.11 1.4 2.82 3.4 4.22 4.965 2.68 3.014 3.11 3.183 3.49 3.183h.17c.39 0 .77-.168 3.45-3.224a224.86 224.86 0 004.22-4.966c2.47-3.098 2.47-5.645 2-7.215zm-3.28 6.2c-1.96 2.462-5.32 6.324-6.47 7.385-1.15-1.061-4.52-4.924-6.48-7.385-1.61-1.994-2.21-3.947-1.7-5.687a4.986 4.986 0 013.11-3.225c1.23-.467 2.9.169 4.43 1.655a.84.84 0 001.06.126.447.447 0 00.22-.17c1.53-1.443 3.19-2.079 4.42-1.655a5.168 5.168 0 013.11 3.268c.51 1.699-.08 3.689-1.7 5.683z" transform="translate(-1465.03 -45)"/></svg><svg viewBox="0 0 16 16" id="icon-home" xmlns="http://www.w3.org/2000/svg"><defs><style>.apcls-1{fill:#8d8d8d;fill-rule:evenodd}</style></defs><path id="aphome_icon" class="apcls-1" d="M893 310l-7.771 6.858a.665.665 0 00-.064.925.639.639 0 00.91.065l.286-.253v6.44a1.95 1.95 0 001.933 1.965h3.606v-5.274a1.138 1.138 0 011.128-1.146 1.138 1.138 0 011.128 1.146V326h3.544a1.95 1.95 0 001.934-1.965v-6.44l.286.253a.637.637 0 00.909-.065.663.663 0 00-.064-.925zm5.35 14.035a.65.65 0 01-.645.655h-2.256v-3.964a2.437 2.437 0 00-2.417-2.456 2.437 2.437 0 00-2.417 2.456v3.964h-2.32a.65.65 0 01-.645-.655v-7.578l5.35-4.722 5.35 4.722v7.578z" transform="translate(-885 -310)"/></svg><svg viewBox="0 0 448 512" id="icon-instagram" xmlns="http://www.w3.org/2000/svg"><!--! Font Awesome Pro 6.1.1 by @fontawesome - https://fontawesome.com License - https://fontawesome.com/license (Commercial License) Copyright 2022 Fonticons, Inc.--><path d="M224.1 141c-63.6 0-114.9 51.3-114.9 114.9s51.3 114.9 114.9 114.9S339 319.5 339 255.9 287.7 141 224.1 141zm0 189.6c-41.1 0-74.7-33.5-74.7-74.7s33.5-74.7 74.7-74.7 74.7 33.5 74.7 74.7-33.6 74.7-74.7 74.7zm146.4-194.3c0 14.9-12 26.8-26.8 26.8-14.9 0-26.8-12-26.8-26.8s12-26.8 26.8-26.8 26.8 12 26.8 26.8zm76.1 27.2c-1.7-35.9-9.9-67.7-36.2-93.9-26.2-26.2-58-34.4-93.9-36.2-37-2.1-147.9-2.1-184.9 0-35.8 1.7-67.6 9.9-93.9 36.1s-34.4 58-36.2 93.9c-2.1 37-2.1 147.9 0 184.9 1.7 35.9 9.9 67.7 36.2 93.9s58 34.4 93.9 36.2c37 2.1 147.9 2.1 184.9 0 35.9-1.7 67.7-9.9 93.9-36.2 26.2-26.2 34.4-58 36.2-93.9 2.1-37 2.1-147.8 0-184.8zM398.8 388c-7.8 19.6-22.9 34.7-42.6 42.6-29.5 11.7-99.5 9-132.1 9s-102.7 2.6-132.1-9c-19.6-7.8-34.7-22.9-42.6-42.6-11.7-29.5-9-99.5-9-132.1s-2.6-102.7 9-132.1c7.8-19.6 22.9-34.7 42.6-42.6 29.5-11.7 99.5-9 132.1-9s102.7-2.6 132.1 9c19.6 7.8 34.7 22.9 42.6 42.6 11.7 29.5 9 99.5 9 132.1s2.7 102.7-9 132.1z"/></svg><svg viewBox="0 0 310 310" id="icon-linkedin" xmlns="http://www.w3.org/2000/svg"><path d="M72.16 99.73H9.927a5 5 0 00-5 5v199.928a5 5 0 005 5H72.16a5 5 0 005-5V104.73a5 5 0 00-5-5zM41.066.341C18.422.341 0 18.743 0 41.362 0 63.991 18.422 82.4 41.066 82.4c22.626 0 41.033-18.41 41.033-41.038C82.1 18.743 63.692.341 41.066.341zM230.454 94.761c-24.995 0-43.472 10.745-54.679 22.954V104.73a5 5 0 00-5-5h-59.599a5 5 0 00-5 5v199.928a5 5 0 005 5h62.097a5 5 0 005-5V205.74c0-33.333 9.054-46.319 32.29-46.319 25.306 0 27.317 20.818 27.317 48.034v97.204a5 5 0 005 5H305a5 5 0 005-5V194.995c0-49.565-9.451-100.234-79.546-100.234z"/></svg><svg viewBox="0 0 20 15" id="icon-list" xmlns="http://www.w3.org/2000/svg"><defs><style>.ascls-1{fill:#8d8d8d;fill-rule:evenodd}</style></defs><path id="aslist" class="ascls-1" d="M885.007 610h4.422v4.172h-4.422V610zm5.828 0h14.159v4.172h-14.159V610zm-5.828 5.413h4.422v4.172h-4.422v-4.172zm5.828 0h14.159v4.172h-14.159v-4.172zm-5.828 5.414h4.422V625h-4.422v-4.171zm5.828 0h14.159V625h-14.159v-4.171z" transform="translate(-885 -610)"/></svg><svg viewBox="-3 0 24 24" id="icon-pinterest" xmlns="http://www.w3.org/2000/svg"><path d="M0 8.61v-.051C0 7.521.199 6.53.56 5.621l-.019.054A7.56 7.56 0 012.038 3.27l-.005.005A10.201 10.201 0 016.822.391l.071-.016A11.166 11.166 0 019.797 0h.011-.001.073c1.516 0 2.95.355 4.222.985L14.046.96a8.068 8.068 0 013.169 2.762l.018.029a7.209 7.209 0 011.226 4.041l-.001.103V7.89v.016c0 .954-.1 1.885-.29 2.782l.015-.087a10.897 10.897 0 01-.894 2.617l.029-.064a8.957 8.957 0 01-1.447 2.168l.007-.008a6.289 6.289 0 01-2.051 1.47l-.04.016a6.493 6.493 0 01-2.65.556h-.08.004a4.47 4.47 0 01-1.973-.473l.026.012a2.912 2.912 0 01-1.377-1.255l-.008-.015q-.144.56-.4 1.622t-.339 1.37q-.08.31-.296 1.024c-.112.4-.24.74-.393 1.066l.018-.042-.462.902c-.224.437-.444.804-.686 1.154l.022-.034q-.361.526-.894 1.247l-.202.072-.13-.144q-.216-2.265-.216-2.711c.013-1.062.125-2.089.328-3.083l-.018.105q.31-1.651.96-4.146t.75-2.928A5.45 5.45 0 015.31 8.65v.011c0-.851.279-1.636.75-2.27l-.007.01a2.26 2.26 0 011.904-1.053c.027-.002.058-.002.09-.002.511 0 .969.226 1.279.584l.002.002c.306.378.492.864.492 1.394l-.002.089v-.004a9.12 9.12 0 01-.656 2.816l.022-.061a8.86 8.86 0 00-.632 2.665l-.002.032-.001.048c0 .578.25 1.098.648 1.457l.002.002c.399.371.935.599 1.525.599l.05-.001h-.002.024c.53 0 1.028-.134 1.464-.369l-.016.008a3.348 3.348 0 001.126-.972l.006-.009c.292-.396.561-.846.787-1.32l.021-.05c.219-.455.408-.986.537-1.54l.011-.053c.106-.425.208-.968.28-1.52l.009-.08c.058-.429.092-.927.094-1.433v-.002a4.898 4.898 0 00-1.575-3.884l-.003-.003a5.965 5.965 0 00-4.131-1.392h.013A6.636 6.636 0 004.6 4.218l.002-.002a6.29 6.29 0 00-1.933 4.747v-.01.012c0 .433.066.85.188 1.243l-.008-.03c.102.357.235.669.401.958l-.011-.021q.209.346.39.656c.088.125.151.273.179.433l.001.007a3.513 3.513 0 01-.224 1.077l.008-.024q-.216.649-.534.649-.029 0-.245-.043a2.967 2.967 0 01-1.304-.806l-.001-.002a4.207 4.207 0 01-.87-1.332l-.01-.028a8.45 8.45 0 01-.459-1.5l-.01-.058a7.548 7.548 0 01-.159-1.533v-.002z"/></svg><svg viewBox="0 0 460.114 460.114" id="icon-play" xmlns="http://www.w3.org/2000/svg"><path d="M393.538 203.629L102.557 5.543a31.97 31.97 0 00-32.94-1.832 31.967 31.967 0 00-17.022 28.26v396.173a31.97 31.97 0 0049.962 26.428l290.981-198.087a31.97 31.97 0 000-52.856z"/></svg><svg id="icon-play-btn" data-name="play btn" viewBox="0 0 130 130" xmlns="http://www.w3.org/2000/svg"><defs><style>.avcls-1,.avcls-2,.avcls-3{fill:#fe3e57}.avcls-1{opacity:.2}.avcls-2{opacity:.6}.avcls-4{fill:#fff;fill-rule:evenodd}</style></defs><circle id="avEllipse_7_copy_2" data-name="Ellipse 7 copy 2" class="avcls-1" cx="65" cy="65" r="65"/><circle id="avEllipse_7_copy" data-name="Ellipse 7 copy" class="avcls-2" cx="65" cy="65" r="55"/><circle class="avcls-3" cx="65" cy="65" r="45"/><path class="avcls-4" d="M649.816 2630.14l-11.824-7.6a2.934 2.934 0 00-1.554-.54 1.507 1.507 0 00-1.431 1.78v16.44a1.507 1.507 0 001.429 1.78 3 3 0 001.546-.54l11.83-7.6a2.056 2.056 0 000-3.72" transform="translate(-578 -2567)"/></svg><svg viewBox="0 0 15 13" id="icon-reply" xmlns="http://www.w3.org/2000/svg"><defs><style>.awcls-1{fill:#8d8d8d;fill-rule:evenodd}</style></defs><path class="awcls-1" d="M5.835 3.48V.01L0 6.08l5.834 6.07V8.59c4.167 0 7.084 1.39 9.167 4.42-.832-4.33-3.333-8.66-9.166-9.53z"/></svg><svg viewBox="0 0 20.03 20" id="icon-search" xmlns="http://www.w3.org/2000/svg"><defs><style>.axcls-1{fill:#29282d;fill-rule:evenodd}</style></defs><path id="axsearch" class="axcls-1" d="M1439.89 63.7l-5.81-5.81a7.944 7.944 0 10-1.18 1.178l5.81 5.81a.417.417 0 00.59 0l.59-.589a.421.421 0 000-.589zm-11.96-4.533a6.25 6.25 0 116.25-6.25 6.254 6.254 0 01-6.25 6.246z" transform="translate(-1420 -45)"/></svg><svg viewBox="0 0 329.942 329.942" id="icon-star" xmlns="http://www.w3.org/2000/svg"><path d="M329.208 126.666a14.999 14.999 0 00-12.109-10.209l-95.822-13.922-42.854-86.837a15.001 15.001 0 00-26.902 0l-42.851 86.836-95.825 13.922a15 15 0 00-8.313 25.586l69.339 67.582-16.375 95.446a15 15 0 0021.764 15.813l85.711-45.059 85.71 45.059a15.191 15.191 0 007.021 1.723c8.275-.012 14.979-6.723 14.979-15 0-1.152-.13-2.275-.376-3.352l-16.233-94.629 69.339-67.583a14.997 14.997 0 003.797-15.376z"/></svg><svg id="icon-support" viewBox="0 0 60 60" xmlns="http://www.w3.org/2000/svg"><defs><style>.azcls-1{fill:#fe3e57}.azcls-2{fill:#fff;fill-rule:evenodd}</style></defs><path id="azIcon_bg" class="azcls-1" d="M0 0h60v60H0z"/><path id="azIcon-2" data-name="Icon" class="azcls-2" d="M1257.38 1019.68a2.391 2.391 0 00-1.45-.6 2.114 2.114 0 00-1.6.6l-2.89 2.79a1.309 1.309 0 00-.19-.27 1.885 1.885 0 00-1.47-.64h-4.04a8.421 8.421 0 01-2.21-.29 5.543 5.543 0 00-5.08 1.05 6.581 6.581 0 00-1.32 1.39l-.73-.69a.506.506 0 00-.36-.14.514.514 0 00-.37.15l-3.52 3.57a.508.508 0 00-.15.36.52.52 0 00.16.35l5.97 5.55a.518.518 0 00.35.14.53.53 0 00.37-.15l3.49-3.5a.554.554 0 00.15-.36.5.5 0 00-.16-.35l-.3-.29.69-.08a10.862 10.862 0 011.28-.07h6.15a4.75 4.75 0 002.53-.64.01.01 0 00.01-.01 3.055 3.055 0 00.66-.58l4.14-4.76a1.711 1.711 0 00-.11-2.53zm-18.91 12.12l-5.23-4.86 2.81-2.86 5.2 4.93zm18.25-10.24l-4.15 4.77a2.861 2.861 0 01-.45.4 3.755 3.755 0 01-1.97.47h-6.16a12.623 12.623 0 00-1.38.08l-1.54.17-3.2-3.04a6.478 6.478 0 011.22-1.32 4.508 4.508 0 014.16-.86 9.348 9.348 0 002.49.33h4.04a.9.9 0 01.92.97 1.091 1.091 0 01-.23.7.883.883 0 01-.7.28h-3.52a.512.512 0 00-.52.5.506.506 0 00.52.5h3.52a1.9 1.9 0 001.47-.64 2.04 2.04 0 00.49-1.27l3.33-3.22a1.222 1.222 0 011.63.03.742.742 0 01.03 1.15zm0 0l-12.07 3.32a.5.5 0 00-.61-.37.489.489 0 00-.38.6v.02a.513.513 0 00.5.38.375.375 0 00.11-.01.5.5 0 00.39-.6zm0 0l-9.19-6.35h4.98a1.242 1.242 0 00.73-.23 1.2 1.2 0 00.73.23h4.98a1.242 1.242 0 00.73-.23 1.19 1.19 0 00.72.23h4.98a1.221 1.221 0 001.24-1.21v-2.26a2.619 2.619 0 00-1.46-2.35 2.756 2.756 0 00.68-1.83 2.951 2.951 0 00-5.9 0 2.808 2.808 0 00.68 1.83 2.61 2.61 0 00-.94.8 2.73 2.73 0 00-.95-.8 2.808 2.808 0 00.68-1.83 2.951 2.951 0 00-5.9 0 2.756 2.756 0 00.68 1.83 2.643 2.643 0 00-.95.8 1.4 1.4 0 01-.27-2.63 2.951 2.951 0 00-5.9 0 2.808 2.808 0 00.68 1.83 2.637 2.637 0 00-1.46 2.35v2.26a1.227 1.227 0 001.24 1.21zm15.36-9.53a1.88 1.88 0 11-1.92 1.88 1.9 1.9 0 011.92-1.88zm-1.33 4.45a2.99 2.99 0 001.33.31 2.958 2.958 0 001.33-.31 1.624 1.624 0 011.38 1.61v2.26a.214.214 0 01-.22.21h-4.98a.205.205 0 01-.21-.21v-2.26a1.625 1.625 0 011.37-1.61zm-5.1-4.45a1.881 1.881 0 11-1.93 1.88 1.9 1.9 0 011.93-1.88zm-1.33 4.45a2.958 2.958 0 001.33.31 2.99 2.99 0 001.33-.31 1.625 1.625 0 011.37 1.61v2.26a.205.205 0 01-.21.21h-4.98a.214.214 0 01-.22-.21v-2.26a1.624 1.624 0 011.38-1.61zm-5.11-4.45a1.881 1.881 0 11-1.93 1.88 1.908 1.908 0 011.93-1.88zm-2.71 6.06a1.633 1.633 0 011.38-1.61 3.008 3.008 0 002.66 0 1.633 1.633 0 011.38 1.61v2.26a.214.214 0 01-.22.21h-4.98a.214.214 0 01-.22-.21v-2.26zm0 0" transform="translate(-1215 -990)"/></svg><svg id="icon-time" viewBox="0 0 60 60" xmlns="http://www.w3.org/2000/svg"><defs><style>.bacls-1{fill:#34c3ff}.bacls-2{fill:#fff;fill-rule:evenodd}</style></defs><path id="baIcon_bg" class="bacls-1" d="M0 0h60v60H0z"/><path id="baIcon-2" data-name="Icon" class="bacls-2" d="M857 1010.44l-1.451-.11-.121 1.69a12.253 12.253 0 00-9.07-4.02 12.5 12.5 0 000 25 12.3 12.3 0 0010.265-5.55l-1.207-.82a10.863 10.863 0 01-9.058 4.9 11.031 11.031 0 010-22.06 10.806 10.806 0 018.057 3.61l-1.851-.14-.106 1.47 4.234.31zm-18.933 10.34a2.429 2.429 0 00.947.24c.356 0 .608-.11.608-.37a.539.539 0 00-.624-.41h-.46v-.73h.443a.477.477 0 00.554-.31c0-.17-.176-.29-.51-.29a2.022 2.022 0 00-.86.23l-.219-.74a2.666 2.666 0 011.309-.3 1.116 1.116 0 011.332.93.866.866 0 01-.7.84v.01a.87.87 0 01.816.84c0 .7-.657 1.11-1.611 1.11a2.514 2.514 0 01-1.243-.28zm4.617 1.05a1.538 1.538 0 11.006 0h-.006zm.011-.75c.28 0 .466-.35.466-1.11s-.186-1.11-.471-1.11-.471.34-.471 1.11.186 1.11.471 1.11zm3.183-3a9.807 9.807 0 011.3-.08 2.885 2.885 0 011.66.38 1.569 1.569 0 01.734 1.41 1.788 1.788 0 01-.679 1.52 3.173 3.173 0 01-1.917.5 7.786 7.786 0 01-1.1-.06v-3.67zm1.035 2.92a1.826 1.826 0 00.241.01 1.124 1.124 0 001.31-1.16 1.03 1.03 0 00-1.189-1.06 1.909 1.909 0 00-.362.03v2.18zm5.725.09a3.849 3.849 0 00.044.68h-.932l-.055-.23h-.021a1.012 1.012 0 01-.789.29.875.875 0 01-.943-.85c0-.74.647-1.07 1.666-1.07v-.02c0-.1-.066-.22-.471-.22a1.861 1.861 0 00-.817.21l-.18-.65a2.564 2.564 0 011.177-.26 1.134 1.134 0 011.321 1.21v.91zm-1-.55c-.455 0-.674.11-.674.34a.247.247 0 00.3.24.4.4 0 00.367-.28.689.689 0 00.011-.15v-.15zm2.443-1.5l.356 1.18c.044.16.1.38.137.51h.026c.038-.14.082-.36.115-.51l.268-1.18h1.129l-.57 1.56a4.369 4.369 0 01-1.09 2.02 1.683 1.683 0 01-.97.38l-.192-.88a1.2 1.2 0 00.335-.07.955.955 0 00.35-.25.223.223 0 00.055-.13.406.406 0 00-.044-.16l-1.057-2.47h1.156z" transform="translate(-815 -990)"/></svg><svg viewBox="0 0 310 310" id="icon-twitter" xmlns="http://www.w3.org/2000/svg"><path d="M302.973 57.388a117.512 117.512 0 01-14.993 5.463 66.276 66.276 0 0013.494-23.73 5 5 0 00-7.313-5.824 117.994 117.994 0 01-34.878 13.783c-12.381-12.098-29.197-18.983-46.581-18.983-36.695 0-66.549 29.853-66.549 66.547 0 2.89.183 5.764.545 8.598C101.163 99.244 58.83 76.863 29.76 41.204a5.001 5.001 0 00-8.196.642c-5.896 10.117-9.013 21.688-9.013 33.461 0 16.035 5.725 31.249 15.838 43.137a56.37 56.37 0 01-8.907-3.977 5 5 0 00-7.427 4.257c-.007.295-.007.59-.007.889 0 23.935 12.882 45.484 32.577 57.229a57.372 57.372 0 01-5.063-.735 4.998 4.998 0 00-5.699 6.437c7.29 22.76 26.059 39.501 48.749 44.605-18.819 11.787-40.34 17.961-62.932 17.961a120.4 120.4 0 01-14.095-.826 5 5 0 00-3.286 9.174c29.023 18.609 62.582 28.445 97.047 28.445 67.754 0 110.139-31.95 133.764-58.753 29.46-33.421 46.356-77.658 46.356-121.367 0-1.826-.028-3.67-.084-5.508 11.623-8.757 21.63-19.355 29.773-31.536a5 5 0 00-6.182-7.351z"/></svg><svg viewBox="0 0 20 20" id="icon-user" xmlns="http://www.w3.org/2000/svg"><defs><style>.bccls-1{fill:#29282d;fill-rule:evenodd}</style></defs><path id="bcuser" class="bccls-1" d="M1392.07 57.928a9.923 9.923 0 00-3.8-2.383 5.78 5.78 0 10-6.54 0A10.018 10.018 0 001375 65h1.56a8.44 8.44 0 0116.88 0h1.56a9.931 9.931 0 00-2.93-7.072zm-11.29-7.148A4.22 4.22 0 111385 55a4.222 4.222 0 01-4.22-4.22z" transform="translate(-1375 -45)"/></svg></svg>