<?xml version="1.0" encoding="utf-8"?><svg viewBox="0 0 22 20" xmlns="http://www.w3.org/2000/svg" xmlns:xlink="http://www.w3.org/1999/xlink"><style>:root>svg{display:none}:root>svg:target{display:block}</style><svg viewBox="0 0 22 20" id="icon-cart" xmlns="http://www.w3.org/2000/svg"><defs><style>.acls-1{fill:#29282d;fill-rule:evenodd}</style></defs><path id="acart_icon" class="acls-1" d="M1527.44 65a2.724 2.724 0 112.74-2.724 2.738 2.738 0 01-2.74 2.724zm0-3.814a1.09 1.09 0 101.09 1.09 1.094 1.094 0 00-1.09-1.093zm1.75-2.806h-12.81a.823.823 0 01-.8-.628l-2.68-11.115h-2.06a.817.817 0 110-1.634h2.71a.824.824 0 01.8.627l.74 3.078h16.1a.818.818 0 01.8 1.014l-2 8.038a.822.822 0 01-.8.617zm-12.16-1.635h11.52l1.59-6.4h-14.65zm.45 8.255a2.724 2.724 0 112.74-2.724 2.738 2.738 0 01-2.74 2.724zm0-3.814a1.09 1.09 0 101.09 1.09 1.094 1.094 0 00-1.09-1.093z" transform="translate(-1510 -45)"/></svg><svg viewBox="0 0 20 20" id="icon-heart" xmlns="http://www.w3.org/2000/svg"><defs><style>.bcls-1{fill:#29282d;fill-rule:evenodd}</style></defs><path id="bheart_icon" class="bcls-1" d="M1484.78 49.589a6.683 6.683 0 00-4.17-4.371c-1.71-.595-3.75 0-5.58 1.611-1.83-1.569-3.88-2.122-5.58-1.569a6.884 6.884 0 00-4.17 4.371c-.47 1.57-.51 4.117 1.95 7.215 1.11 1.4 2.82 3.4 4.22 4.965 2.68 3.014 3.11 3.183 3.49 3.183h.17c.39 0 .77-.168 3.45-3.224a224.86 224.86 0 004.22-4.966c2.47-3.098 2.47-5.645 2-7.215zm-3.28 6.2c-1.96 2.462-5.32 6.324-6.47 7.385-1.15-1.061-4.52-4.924-6.48-7.385-1.61-1.994-2.21-3.947-1.7-5.687a4.986 4.986 0 013.11-3.225c1.23-.467 2.9.169 4.43 1.655a.84.84 0 001.06.126.447.447 0 00.22-.17c1.53-1.443 3.19-2.079 4.42-1.655a5.168 5.168 0 013.11 3.268c.51 1.699-.08 3.689-1.7 5.683z" transform="translate(-1465.03 -45)"/></svg><svg viewBox="0 0 20.03 20" id="icon-search" xmlns="http://www.w3.org/2000/svg"><defs><style>.ccls-1{fill:#29282d;fill-rule:evenodd}</style></defs><path id="csearch" class="ccls-1" d="M1439.89 63.7l-5.81-5.81a7.944 7.944 0 10-1.18 1.178l5.81 5.81a.417.417 0 00.59 0l.59-.589a.421.421 0 000-.589zm-11.96-4.533a6.25 6.25 0 116.25-6.25 6.254 6.254 0 01-6.25 6.246z" transform="translate(-1420 -45)"/></svg><svg viewBox="0 0 20 20" id="icon-user" xmlns="http://www.w3.org/2000/svg"><defs><style>.dcls-1{fill:#29282d;fill-rule:evenodd}</style></defs><path id="duser" class="dcls-1" d="M1392.07 57.928a9.923 9.923 0 00-3.8-2.383 5.78 5.78 0 10-6.54 0A10.018 10.018 0 001375 65h1.56a8.44 8.44 0 0116.88 0h1.56a9.931 9.931 0 00-2.93-7.072zm-11.29-7.148A4.22 4.22 0 111385 55a4.222 4.222 0 01-4.22-4.22z" transform="translate(-1375 -45)"/></svg></svg>